<?xml version="1.0" encoding="UTF-8" standalone="no"?>
<!DOCTYPE svg PUBLIC "-//W3C//DTD SVG 1.1//EN" "http://www.w3.org/Graphics/SVG/1.1/DTD/svg11.dtd">
<svg width="100%" height="100%" viewBox="0 0 104 120" version="1.1" xmlns="http://www.w3.org/2000/svg" xmlns:xlink="http://www.w3.org/1999/xlink" xml:space="preserve" xmlns:serif="http://www.serif.com/" style="fill-rule:evenodd;clip-rule:evenodd;stroke-linejoin:round;stroke-miterlimit:1.5;">
    <g transform="matrix(1,0,0,1,-233.288,0)">
        <g id="rural-circle-120" transform="matrix(0.990588,0,0,1.33139,453.063,64.7779)">
            <rect x="-221.863" y="-48.655" width="104.907" height="90.132" style="fill:none;"/>
            <clipPath id="_clip1">
                <rect x="-221.863" y="-48.655" width="104.907" height="90.132"/>
            </clipPath>
            <g clip-path="url(#_clip1)">
                <g transform="matrix(1.0095,0,0,0.751097,-213.119,-41.1436)">
                    <path d="M43.301,35.565L43.301,33.341M55.809,57.264L57.735,58.341M43.3,-10L43.301,33.341M28.868,58.421C28.868,58.421 21.651,62.471 14.434,66.521C7.217,70.572 -8.662,80.21 -8.662,80.21L28.868,58.421ZM57.735,58.341C57.735,58.341 64.952,62.471 72.169,66.521C79.386,70.572 95.262,79.968 95.262,79.968L57.735,58.341ZM30.926,57.132L28.868,58.421M43.3,35.565C51.267,35.565 57.735,42.033 57.735,50C57.735,57.967 51.267,64.435 43.3,64.435C35.333,64.435 28.865,57.967 28.865,50C28.865,42.033 35.333,35.565 43.3,35.565Z" style="fill:none;stroke:black;stroke-width:1px;"/>
                </g>
            </g>
        </g>
    </g>
</svg>
